<?xml version="1.0" encoding="UTF-8"?>
<svg xmlns="http://www.w3.org/2000/svg" viewBox="0 0 1080 2680" role="img" aria-labelledby="title desc">
  <title id="title">Java 依赖升级影响分析 - 小白导览图</title>
  <desc id="desc">从一句话提问到决策包定稿的完整使用逻辑。本技能只分析、不改代码。</desc>
  <defs>
    <marker id="arrow" viewBox="0 0 10 10" refX="9" refY="5" markerWidth="8" markerHeight="8" orient="auto-start-reverse">
      <path d="M0 0 L10 5 L0 10 z" fill="#475569"/>
    </marker>
    <marker id="arrow-amber" viewBox="0 0 10 10" refX="9" refY="5" markerWidth="8" markerHeight="8" orient="auto-start-reverse">
      <path d="M0 0 L10 5 L0 10 z" fill="#b45309"/>
    </marker>
    <marker id="arrow-red" viewBox="0 0 10 10" refX="9" refY="5" markerWidth="8" markerHeight="8" orient="auto-start-reverse">
      <path d="M0 0 L10 5 L0 10 z" fill="#b91c1c"/>
    </marker>
    <filter id="shadow" x="-4%" y="-4%" width="108%" height="112%">
      <feDropShadow dx="0" dy="1.5" stdDeviation="2" flood-color="#0f172a" flood-opacity="0.08"/>
    </filter>
    <style>
      .bg { fill: #f8fafc; }
      .title { font: 700 24px/1.3 "Segoe UI", "PingFang SC", "Microsoft YaHei", sans-serif; fill: #0f172a; }
      .subtitle { font: 400 13px/1.45 "Segoe UI", "PingFang SC", "Microsoft YaHei", sans-serif; fill: #64748b; }
      .phase { font: 700 13px/1.2 "Segoe UI", "PingFang SC", "Microsoft YaHei", sans-serif; fill: #1e293b; }
      .box-title { font: 700 14px/1.3 "Segoe UI", "PingFang SC", "Microsoft YaHei", sans-serif; fill: #0f172a; }
      .box-sub { font: 400 12px/1.4 "Segoe UI", "PingFang SC", "Microsoft YaHei", sans-serif; fill: #475569; }
      .tiny { font: 400 11px/1.35 "Segoe UI", "PingFang SC", "Microsoft YaHei", sans-serif; fill: #64748b; }
      .label { font: 600 11px/1.25 "Segoe UI", "PingFang SC", "Microsoft YaHei", sans-serif; fill: #64748b; }
      .label-warn { font: 600 11px/1.25 "Segoe UI", "PingFang SC", "Microsoft YaHei", sans-serif; fill: #b45309; }
      .label-ok { font: 600 11px/1.25 "Segoe UI", "PingFang SC", "Microsoft YaHei", sans-serif; fill: #047857; }
      .label-stop { font: 600 11px/1.25 "Segoe UI", "PingFang SC", "Microsoft YaHei", sans-serif; fill: #b91c1c; }
      .legend { font: 400 12px/1.35 "Segoe UI", "PingFang SC", "Microsoft YaHei", sans-serif; fill: #334155; }
      .mono { font: 600 11px/1.3 ui-monospace, Consolas, monospace; fill: #334155; }
      .foot { font: 500 12px/1.4 "Segoe UI", "PingFang SC", "Microsoft YaHei", sans-serif; fill: #64748b; }
      .rail { fill: #e2e8f0; }
      .flow { stroke: #64748b; stroke-width: 2; fill: none; stroke-dasharray: 10 8; animation: march 1.4s linear infinite; }
      .flow-amber { stroke: #b45309; stroke-width: 1.6; fill: none; stroke-dasharray: 6 5; animation: march 1.1s linear infinite; }
      @keyframes march { to { stroke-dashoffset: -36; } }
      @keyframes fadeUp { from { opacity: 0; transform: translateY(10px); } to { opacity: 1; transform: translateY(0); } }
      @keyframes pulseGlow { 0%, 100% { opacity: 1; } 50% { opacity: 0.86; } }
      .stage { opacity: 0; animation: fadeUp 0.55s ease forwards; }
      .s0 { animation-delay: 0.05s; } .s1 { animation-delay: 0.18s; } .s2 { animation-delay: 0.32s; }
      .s3 { animation-delay: 0.46s; } .s4 { animation-delay: 0.60s; } .s5 { animation-delay: 0.74s; }
      .s6 { animation-delay: 0.88s; } .s7 { animation-delay: 1.02s; } .s8 { animation-delay: 1.16s; }
      .s9 { animation-delay: 1.30s; } .s10 { animation-delay: 1.44s; }
      .human-pulse { animation: fadeUp 0.55s ease forwards, pulseGlow 2.4s ease-in-out 1.6s infinite; }
    </style>
  </defs>

  <rect class="bg" width="1080" height="2680" rx="18"/>

  <g class="stage s0">
    <text class="title" x="40" y="46">Java 依赖升级影响分析 · 小白导览一张图</text>
    <text class="subtitle" x="40" y="72">Skill 名字很长，但只干一件事：把「该不该升、怎么升、风险在哪」查清楚，写成决策包给你拍板。</text>
    <text class="subtitle" x="40" y="92">它不会改你的 pom.xml / build.gradle，也不会替你装包、跑迁移脚本。升级落地要另开绿灯。</text>
  </g>

  <g class="stage s0" transform="translate(40, 110)">
    <rect x="0" y="0" width="1000" height="56" rx="12" fill="#fff" stroke="#e2e8f0"/>
    <rect x="18" y="18" width="16" height="16" rx="4" fill="#dbeafe" stroke="#2563eb"/>
    <text class="legend" x="42" y="31">Agent 自动做</text>
    <rect x="160" y="18" width="16" height="16" rx="4" fill="#fef3c7" stroke="#d97706"/>
    <text class="legend" x="184" y="31">需要你选择</text>
    <rect x="300" y="18" width="16" height="16" rx="4" fill="#d1fae5" stroke="#059669"/>
    <text class="legend" x="324" y="31">本技能终点（报告定稿）</text>
    <rect x="520" y="18" width="16" height="16" rx="4" fill="#fee2e2" stroke="#dc2626"/>
    <text class="legend" x="544" y="31">技能外 / 停住 / 实施另授权</text>
    <text class="tiny" x="780" y="31">虚线箭头 = 可循环追问</text>
  </g>

  <rect class="rail" x="28" y="190" width="6" height="2420" rx="3"/>

  <g class="stage s1">
    <circle cx="31" cy="210" r="8" fill="#2563eb"/>
    <text class="phase" x="52" y="215">0 · 先建立心智：它是「参谋」，不是「施工队」</text>
    <g filter="url(#shadow)">
      <rect x="52" y="230" width="460" height="100" rx="12" fill="#dbeafe" stroke="#2563eb"/>
      <text class="box-title" x="72" y="258">会做</text>
      <text class="box-sub" x="72" y="280">读依赖树 · 查目标版是否真存在 · 判处置路径</text>
      <text class="box-sub" x="72" y="300">写影响/风险/验证建议 · 当场问你确认</text>
      <text class="box-sub" x="72" y="320">产出决策包 + 决策记录（中文正文）</text>
    </g>
    <g filter="url(#shadow)">
      <rect x="532" y="230" width="468" height="100" rx="12" fill="#fee2e2" stroke="#dc2626"/>
      <text class="box-title" x="552" y="258">不会做</text>
      <text class="box-sub" x="552" y="280">改 pom / Gradle · 执行 exclusion · 跑 OpenRewrite</text>
      <text class="box-sub" x="552" y="300">把「编译过了」当成「可以上线」</text>
      <text class="box-sub" x="552" y="320">替你一键「全部 proceed」</text>
    </g>
  </g>

  <g class="stage s2">
    <circle cx="31" cy="370" r="8" fill="#2563eb"/>
    <text class="phase" x="52" y="375">1 · 你怎么开口（两种入口，一句话就够）</text>
    <g filter="url(#shadow)">
      <rect x="200" y="392" width="320" height="72" rx="12" fill="#dbeafe" stroke="#2563eb"/>
      <text class="box-title" x="360" y="420" text-anchor="middle">你提出需求 + 项目路径</text>
      <text class="box-sub" x="360" y="444" text-anchor="middle">短提示即可，不必背术语</text>
    </g>
    <path class="flow" d="M360 464 V488" marker-end="url(#arrow)"/>
    <g filter="url(#shadow)">
      <rect x="80" y="492" width="420" height="96" rx="12" fill="#dbeafe" stroke="#2563eb"/>
      <text class="box-title" x="290" y="520" text-anchor="middle">入口 A · 精确表</text>
      <text class="box-sub" x="290" y="544" text-anchor="middle">你已有 from -&gt; to（合规扫描表 / CVE 表）</text>
      <text class="box-sub" x="290" y="566" text-anchor="middle">例：jackson-databind 2.21.2-&gt;2.21.4</text>
    </g>
    <g filter="url(#shadow)">
      <rect x="540" y="492" width="420" height="96" rx="12" fill="#dbeafe" stroke="#2563eb"/>
      <text class="box-title" x="750" y="520" text-anchor="middle">入口 B · 整仓巡检</text>
      <text class="box-sub" x="750" y="544" text-anchor="middle">只给仓库路径，先出「候选清单」</text>
      <text class="box-sub" x="750" y="566" text-anchor="middle">先问你选哪一批，绝不默默扫全仓</text>
    </g>
    <g filter="url(#shadow)">
      <rect x="80" y="604" width="880" height="52" rx="10" fill="#fff7ed" stroke="#ea580c"/>
      <text class="label-warn" x="520" y="626" text-anchor="middle">拆批规则（小白版）：一次只分析「同一权威层 × 同一 Boot 线 × 同一构建变体 × 同一有界范围」</text>
      <text class="tiny" x="520" y="646" text-anchor="middle">JDK 升级、Boot BOM、业务库 MAJOR 不要塞进同一批；Netty 卡住也不必强行把 Jackson 拆出去</text>
    </g>
  </g>

  <g class="stage s3">
    <circle cx="31" cy="700" r="8" fill="#2563eb"/>
    <text class="phase" x="52" y="705">2 · 环境前置（开工前先体检，失败就停）</text>
    <g filter="url(#shadow)">
      <rect x="80" y="724" width="200" height="78" rx="12" fill="#dbeafe" stroke="#2563eb"/>
      <text class="box-title" x="180" y="752" text-anchor="middle">JDK</text>
      <text class="box-sub" x="180" y="774" text-anchor="middle">java -version</text>
      <text class="tiny" x="180" y="792" text-anchor="middle">主机≠工程声明只记录</text>
    </g>
    <g filter="url(#shadow)">
      <rect x="300" y="724" width="220" height="78" rx="12" fill="#dbeafe" stroke="#2563eb"/>
      <text class="box-title" x="410" y="752" text-anchor="middle">构建工具</text>
      <text class="box-sub" x="410" y="774" text-anchor="middle">mvn / gradle 优先</text>
      <text class="tiny" x="410" y="792" text-anchor="middle">仅有 wrapper 也可（记下来）</text>
    </g>
    <g filter="url(#shadow)">
      <rect x="540" y="724" width="180" height="78" rx="12" fill="#dbeafe" stroke="#2563eb"/>
      <text class="box-title" x="630" y="752" text-anchor="middle">Python</text>
      <text class="box-sub" x="630" y="774" text-anchor="middle">跑校验脚本用</text>
      <text class="tiny" x="630" y="792" text-anchor="middle">PATH 或当前解释器</text>
    </g>
    <g filter="url(#shadow)">
      <rect x="740" y="724" width="200" height="78" rx="12" fill="#dbeafe" stroke="#2563eb"/>
      <text class="box-title" x="840" y="752" text-anchor="middle">网络（同波）</text>
      <text class="box-sub" x="840" y="774" text-anchor="middle">Central + GitHub</text>
      <text class="tiny" x="840" y="792" text-anchor="middle">双挂再问你是否离线</text>
    </g>
    <path class="flow" d="M180 802 V830 H410" marker-end="url(#arrow)"/>
    <path class="flow" d="M410 802 V830" marker-end="url(#arrow)"/>
    <path class="flow" d="M630 802 V830 H410" marker-end="url(#arrow)"/>
    <g filter="url(#shadow)">
      <rect x="260" y="834" width="300" height="64" rx="12" fill="#fff" stroke="#334155" stroke-width="2"/>
      <text class="box-title" x="410" y="860" text-anchor="middle">preflight 结果？</text>
      <text class="box-sub" x="410" y="882" text-anchor="middle">脚本 exit 0 / 5 / 6</text>
    </g>
    <path class="flow" d="M260 866 H140 V940" marker-end="url(#arrow-red)"/>
    <path class="flow-amber" d="M560 866 H700 V940" marker-end="url(#arrow-amber)"/>
    <path class="flow" d="M410 898 V940" marker-end="url(#arrow)"/>
    <g filter="url(#shadow)">
      <rect x="40" y="944" width="220" height="70" rx="10" fill="#fee2e2" stroke="#dc2626"/>
      <text class="label-stop" x="150" y="970" text-anchor="middle">exit 5 · 硬失败</text>
      <text class="box-sub" x="150" y="992" text-anchor="middle">缺 java/工具/python</text>
      <text class="tiny" x="150" y="1008" text-anchor="middle">不写报告 · 对话列缺口</text>
    </g>
    <g filter="url(#shadow)">
      <rect x="300" y="944" width="220" height="70" rx="10" fill="#d1fae5" stroke="#059669"/>
      <text class="label-ok" x="410" y="970" text-anchor="middle">exit 0 · 通过</text>
      <text class="box-sub" x="410" y="992" text-anchor="middle">继续只读分析</text>
      <text class="tiny" x="410" y="1008" text-anchor="middle">可进入下一步</text>
    </g>
    <g class="human-pulse" filter="url(#shadow)">
      <rect x="580" y="944" width="280" height="70" rx="10" fill="#fef3c7" stroke="#d97706"/>
      <text class="label-warn" x="720" y="970" text-anchor="middle">exit 6 · 双构建要你选</text>
      <text class="box-sub" x="720" y="992" text-anchor="middle">同时有 Maven + Gradle</text>
      <text class="tiny" x="720" y="1008" text-anchor="middle">不是 blocked · 选完再跑</text>
    </g>
  </g>

  <g class="stage s4">
    <circle cx="31" cy="1060" r="8" fill="#2563eb"/>
    <text class="phase" x="52" y="1065">3 · 报告写到哪里？（路径没定清前：可读，不可写）</text>
    <g filter="url(#shadow)">
      <rect x="80" y="1084" width="280" height="72" rx="12" fill="#dbeafe" stroke="#2563eb"/>
      <text class="box-title" x="220" y="1112" text-anchor="middle">优先 1</text>
      <text class="box-sub" x="220" y="1134" text-anchor="middle">你指定 --output-dir</text>
    </g>
    <g filter="url(#shadow)">
      <rect x="380" y="1084" width="300" height="72" rx="12" fill="#dbeafe" stroke="#2563eb"/>
      <text class="box-title" x="530" y="1112" text-anchor="middle">优先 2</text>
      <text class="box-sub" x="530" y="1134" text-anchor="middle">已有 change → evidence/…</text>
    </g>
    <g filter="url(#shadow)">
      <rect x="700" y="1084" width="280" height="72" rx="12" fill="#fef3c7" stroke="#d97706"/>
      <text class="box-title" x="840" y="1112" text-anchor="middle">优先 3 · 可能问你</text>
      <text class="box-sub" x="840" y="1134" text-anchor="middle">匹配已有 openspec/changes</text>
    </g>
    <text class="tiny" x="540" y="1176" text-anchor="middle">不会在仓库根乱建报告目录，也不会擅自创建 OpenSpec change</text>
  </g>

  <g class="stage s5">
    <circle cx="31" cy="1210" r="8" fill="#2563eb"/>
    <text class="phase" x="52" y="1215">4 · 收集证据（先问「现在到底是什么版本」，再谈升级）</text>
    <g filter="url(#shadow)">
      <rect x="80" y="1234" width="300" height="100" rx="12" fill="#dbeafe" stroke="#2563eb"/>
      <text class="box-title" x="230" y="1262" text-anchor="middle">① 有效版本基线</text>
      <text class="box-sub" x="230" y="1284" text-anchor="middle">dependency:tree / insight</text>
      <text class="box-sub" x="230" y="1304" text-anchor="middle">不要只信 pom 上的数字</text>
      <text class="tiny" x="230" y="1322" text-anchor="middle">有界探测，不先整仓树</text>
    </g>
    <g filter="url(#shadow)">
      <rect x="400" y="1234" width="300" height="100" rx="12" fill="#dbeafe" stroke="#2563eb"/>
      <text class="box-title" x="550" y="1262" text-anchor="middle">② 目标版本真的存在吗？</text>
      <text class="box-sub" x="550" y="1284" text-anchor="middle">按成员 / classifier 探测</text>
      <text class="box-sub" x="550" y="1304" text-anchor="middle">404 先搜 1–3 个替代</text>
      <text class="tiny" x="550" y="1322" text-anchor="middle">禁止偷偷换成「差不多」的包</text>
    </g>
    <g filter="url(#shadow)">
      <rect x="720" y="1234" width="260" height="100" rx="12" fill="#dbeafe" stroke="#2563eb"/>
      <text class="box-title" x="850" y="1262" text-anchor="middle">③ 有没有在用？</text>
      <text class="box-sub" x="850" y="1284" text-anchor="middle">直接依赖才判 usage</text>
      <text class="box-sub" x="850" y="1304" text-anchor="middle">analyze-only + 调用点</text>
      <text class="tiny" x="850" y="1322" text-anchor="middle">框架类默认 ambiguous</text>
    </g>
    <g filter="url(#shadow)">
      <rect x="80" y="1352" width="900" height="70" rx="12" fill="#eff6ff" stroke="#93c5fd"/>
      <text class="box-title" x="100" y="1378">目标缺失时的三岔路</text>
      <text class="box-sub" x="100" y="1402">同 GAV 换版本 → choose-alternative · 换坐标（如 lang→lang3）→ replace-* · 什么都没有 → no-viable-path（卡住，请你重述目标）</text>
    </g>
  </g>

  <g class="stage s6">
    <circle cx="31" cy="1470" r="8" fill="#2563eb"/>
    <text class="phase" x="52" y="1475">5 · 处置阶梯：先决定「做什么」，再决定「版本归谁管」</text>
    <text class="label" x="80" y="1500">直接依赖（你 pom 里写明的）</text>
    <g filter="url(#shadow)">
      <rect x="80" y="1510" width="200" height="64" rx="10" fill="#dbeafe" stroke="#2563eb"/>
      <text class="box-title" x="180" y="1536" text-anchor="middle">1 remove</text>
      <text class="tiny" x="180" y="1556" text-anchor="middle">没用就删（最优）</text>
    </g>
    <path class="flow" d="M280 1542 H300" marker-end="url(#arrow)"/>
    <g filter="url(#shadow)">
      <rect x="300" y="1510" width="260" height="64" rx="10" fill="#dbeafe" stroke="#2563eb"/>
      <text class="box-title" x="430" y="1536" text-anchor="middle">2 upgrade / move</text>
      <text class="tiny" x="430" y="1556" text-anchor="middle">在用则升；Boot 优先升 Owner</text>
    </g>
    <path class="flow" d="M560 1542 H580" marker-end="url(#arrow)"/>
    <g filter="url(#shadow)">
      <rect x="580" y="1510" width="220" height="64" rx="10" fill="#dbeafe" stroke="#2563eb"/>
      <text class="box-title" x="690" y="1536" text-anchor="middle">3 replace-component</text>
      <text class="tiny" x="690" y="1556" text-anchor="middle">死项目 / 换组件兜底</text>
    </g>
    <text class="label" x="80" y="1600">传递依赖（别人带进来的）</text>
    <g filter="url(#shadow)">
      <rect x="80" y="1610" width="170" height="64" rx="10" fill="#dbeafe" stroke="#2563eb"/>
      <text class="box-title" x="165" y="1636" text-anchor="middle">1 exclude</text>
      <text class="tiny" x="165" y="1656" text-anchor="middle">业务未触达才排</text>
    </g>
    <path class="flow" d="M250 1642 H270" marker-end="url(#arrow)"/>
    <g filter="url(#shadow)">
      <rect x="270" y="1610" width="210" height="64" rx="10" fill="#dbeafe" stroke="#2563eb"/>
      <text class="box-title" x="375" y="1636" text-anchor="middle">2 upgrade-introducer</text>
      <text class="tiny" x="375" y="1656" text-anchor="middle">工程默认最优</text>
    </g>
    <path class="flow" d="M480 1642 H500" marker-end="url(#arrow)"/>
    <g filter="url(#shadow)">
      <rect x="500" y="1610" width="170" height="64" rx="10" fill="#dbeafe" stroke="#2563eb"/>
      <text class="box-title" x="585" y="1636" text-anchor="middle">3 force-align</text>
      <text class="tiny" x="585" y="1656" text-anchor="middle">强行钉版本</text>
    </g>
    <path class="flow" d="M670 1642 H690" marker-end="url(#arrow)"/>
    <g filter="url(#shadow)">
      <rect x="690" y="1610" width="210" height="64" rx="10" fill="#dbeafe" stroke="#2563eb"/>
      <text class="box-title" x="795" y="1636" text-anchor="middle">4 replace-introducer</text>
      <text class="tiny" x="795" y="1656" text-anchor="middle">换掉上层直接依赖</text>
    </g>
    <g filter="url(#shadow)">
      <rect x="80" y="1690" width="900" height="56" rx="10" fill="#ecfdf5" stroke="#6ee7b7"/>
      <text class="label-ok" x="100" y="1714">然后才走 Owner 阶梯</text>
      <text class="box-sub" x="100" y="1734">升 BOM → 改属性（如 netty.version）→ 家族 BOM → 单包钉扎 → exclusion+直引。能全家一起动，就不单独钉一个包。</text>
    </g>
  </g>

  <g class="stage s7">
    <circle cx="31" cy="1790" r="8" fill="#2563eb"/>
    <text class="phase" x="52" y="1795">6 · 影响分析 + 写出草稿（草稿 ≠ 做完）</text>
    <g filter="url(#shadow)">
      <rect x="80" y="1814" width="420" height="100" rx="12" fill="#dbeafe" stroke="#2563eb"/>
      <text class="box-title" x="290" y="1842" text-anchor="middle">六层影响</text>
      <text class="box-sub" x="290" y="1864" text-anchor="middle">代码 · 配置 · 数据 · 接口 · 测试 · 部署</text>
      <text class="box-sub" x="290" y="1884" text-anchor="middle">每条标明：事实 还是 推断</text>
      <text class="tiny" x="290" y="1902" text-anchor="middle">并点名要跑哪些验证（japicmp 等只命名不执行）</text>
    </g>
    <g filter="url(#shadow)">
      <rect x="520" y="1814" width="460" height="100" rx="12" fill="#dbeafe" stroke="#2563eb"/>
      <text class="box-title" x="750" y="1842" text-anchor="middle">决策包十章 + 决策记录</text>
      <text class="box-sub" x="750" y="1864" text-anchor="middle">java-dependency-upgrade-report.md</text>
      <text class="box-sub" x="750" y="1884" text-anchor="middle">decision-records/&lt;group&gt;__&lt;artifact&gt;.md</text>
      <text class="tiny" x="750" y="1902" text-anchor="middle">最后用 validate_report.py 做结构体检</text>
    </g>
    <g filter="url(#shadow)">
      <rect x="80" y="1932" width="900" height="48" rx="10" fill="#fff7ed" stroke="#ea580c"/>
      <text class="label-warn" x="530" y="1962" text-anchor="middle">看到草稿还不能收工：只要确认队列里还有 ready/pending，下一动作必须是「当场问你」，不能等「继续/放行」</text>
    </g>
  </g>

  <g class="stage s8">
    <circle cx="31" cy="2025" r="8" fill="#d97706"/>
    <text class="phase" x="52" y="2030">7 · 人工确认（最关键：你是真正拍板的人）</text>
    <g class="human-pulse" filter="url(#shadow)">
      <rect x="80" y="2048" width="600" height="120" rx="12" fill="#fef3c7" stroke="#d97706"/>
      <text class="box-title" x="380" y="2076" text-anchor="middle">同波列出所有 ready/pending 单元，但每个单元单独答复</text>
      <text class="box-sub" x="380" y="2100" text-anchor="middle">常用选项：proceed:g:a:v · remove · exclude · replace:g:a:v · defer · other</text>
      <text class="box-sub" x="380" y="2122" text-anchor="middle">禁止「全部 proceed」· blocked 行不问推进，只请你重述可达目标</text>
      <text class="tiny" x="380" y="2144" text-anchor="middle">答 other → 仍 ready/pending，进入下一波澄清</text>
    </g>
    <g filter="url(#shadow)">
      <rect x="700" y="2048" width="280" height="120" rx="12" fill="#eff6ff" stroke="#93c5fd"/>
      <text class="box-title" x="840" y="2080" text-anchor="middle">队列状态小词典</text>
      <text class="mono" x="840" y="2104" text-anchor="middle">ready/pending = 等你答</text>
      <text class="mono" x="840" y="2124" text-anchor="middle">blocked = 证据不够</text>
      <text class="mono" x="840" y="2144" text-anchor="middle">decided / deferred = 已清</text>
    </g>
    <path class="flow" d="M380 2168 V2192" marker-end="url(#arrow)"/>
    <g filter="url(#shadow)">
      <rect x="200" y="2196" width="360" height="56" rx="12" fill="#dbeafe" stroke="#2563eb"/>
      <text class="box-title" x="380" y="2220" text-anchor="middle">写入答复 → 重生成报告 → Agent 复核</text>
      <text class="tiny" x="380" y="2240" text-anchor="middle">结构校验通过 ≠ 证据一定够，还要人工味复核</text>
    </g>
    <path class="flow-amber" d="M560 2224 H620 V2108 H690" marker-end="url(#arrow-amber)"/>
    <text class="label-warn" x="640" y="2170">还有 follow-up</text>
    <text class="label-warn" x="640" y="2186">再问下一波</text>
  </g>

  <g class="stage s9">
    <circle cx="31" cy="2295" r="8" fill="#059669"/>
    <text class="phase" x="52" y="2300">8 · 定稿：三个状态轴，别混在一起</text>
    <g filter="url(#shadow)">
      <rect x="80" y="2320" width="280" height="88" rx="12" fill="#d1fae5" stroke="#059669"/>
      <text class="box-title" x="220" y="2348" text-anchor="middle">analysis_status</text>
      <text class="box-sub" x="220" y="2370" text-anchor="middle">证据齐了吗？</text>
      <text class="mono" x="220" y="2392" text-anchor="middle">partial / blocked / complete</text>
    </g>
    <g filter="url(#shadow)">
      <rect x="380" y="2320" width="280" height="88" rx="12" fill="#d1fae5" stroke="#059669"/>
      <text class="box-title" x="520" y="2348" text-anchor="middle">decision_status</text>
      <text class="box-sub" x="520" y="2370" text-anchor="middle">人拍板了吗？</text>
      <text class="mono" x="520" y="2392" text-anchor="middle">needs_choice / decided…</text>
    </g>
    <g filter="url(#shadow)">
      <rect x="680" y="2320" width="300" height="88" rx="12" fill="#fff" stroke="#334155" stroke-width="2"/>
      <text class="box-title" x="830" y="2348" text-anchor="middle">batch_implementation_gate</text>
      <text class="box-sub" x="830" y="2370" text-anchor="middle">整批能不能去实施？</text>
      <text class="mono" x="830" y="2392" text-anchor="middle">frozen / ready（信息性）</text>
    </g>
    <path class="flow" d="M220 2408 V2432" marker-end="url(#arrow)"/>
    <g filter="url(#shadow)">
      <rect x="80" y="2436" width="520" height="72" rx="12" fill="#d1fae5" stroke="#059669"/>
      <text class="box-title" x="340" y="2464" text-anchor="middle">本技能终点 = analysis_status=complete</text>
      <text class="box-sub" x="340" y="2488" text-anchor="middle">条件：确认队列没有 ready/pending；可残留证据型 blocked（这时实施门仍 frozen）</text>
    </g>
    <path class="flow" d="M600 2472 H680" marker-end="url(#arrow)"/>
    <g filter="url(#shadow)">
      <rect x="680" y="2436" width="300" height="72" rx="12" fill="#fee2e2" stroke="#dc2626"/>
      <text class="label-stop" x="830" y="2464" text-anchor="middle">gate=ready 且另授权</text>
      <text class="box-sub" x="830" y="2488" text-anchor="middle">才可改依赖（本技能之外）</text>
    </g>
  </g>

  <g class="stage s10">
    <circle cx="31" cy="2550" r="8" fill="#2563eb"/>
    <text class="phase" x="52" y="2555">9 · 小白速记（背这 5 句就够开工）</text>
    <g filter="url(#shadow)">
      <rect x="80" y="2570" width="900" height="72" rx="12" fill="#fff" stroke="#cbd5e1"/>
      <text class="box-sub" x="100" y="2594">1）给路径 + 升级表，或说「整仓巡检」　2）先体检环境，再查真实版本与目标是否存在</text>
      <text class="box-sub" x="100" y="2616">3）先选处置（删/升/排/钉/换），再谈 Owner　4）有 ready/pending 就当场逐条答　5）定稿≠可以改仓库</text>
    </g>
  </g>

  <text class="foot" x="540" y="2664" text-anchor="middle">心智一句话：查清 → 当场问你 → 写决策 → 定稿报告。改 pom / 上线永远要另开绿灯。</text>
</svg>
